<?xml version="1.0" standalone="no"?><!DOCTYPE svg PUBLIC "-//W3C//DTD SVG 1.1//EN" "http://www.w3.org/Graphics/SVG/1.1/DTD/svg11.dtd"><svg t="1604229425655" class="icon" viewBox="0 0 1024 1024" version="1.1" xmlns="http://www.w3.org/2000/svg" p-id="3087" xmlns:xlink="http://www.w3.org/1999/xlink" width="200" height="200"><defs><style type="text/css"></style></defs><path d="M527.36 723.627h-18.773c-110.934-3.414-215.04-23.894-293.547-58.027-83.627-37.547-128-87.04-126.293-139.947 1.706-51.2 46.08-98.986 126.293-131.413 75.093-30.72 175.787-47.787 281.6-47.787h18.773c110.934 1.707 215.04 22.187 293.547 56.32 83.627 37.547 128 87.04 126.293 139.947-1.706 51.2-46.08 98.987-126.293 131.413-75.093 32.427-175.787 49.494-281.6 49.494z m-30.72-343.04c-102.4 0-197.973 17.066-267.947 46.08-64.853 27.306-104.106 63.146-104.106 100.693s37.546 76.8 105.813 105.813c73.387 32.427 172.373 51.2 279.893 54.614h18.774c102.4 0 197.973-17.067 267.946-46.08C861.867 614.4 901.12 578.56 901.12 541.013s-37.547-76.8-105.813-105.813c-73.387-32.427-172.374-51.2-279.894-54.613H496.64z m0 0" fill="#1296db" p-id="3088"></path><path d="M689.493 902.827c-47.786 0-104.106-25.6-165.546-73.387-59.734-47.787-119.467-114.347-170.667-191.147-61.44-92.16-104.107-189.44-119.467-273.066-17.066-88.747-1.706-155.307 42.667-184.32 15.36-10.24 34.133-15.36 56.32-15.36 47.787 0 104.107 25.6 165.547 73.386C558.08 286.72 617.813 353.28 669.013 430.08c61.44 92.16 104.107 189.44 119.467 273.067 17.067 88.746 1.707 155.306-42.667 184.32-17.066 10.24-35.84 15.36-56.32 15.36zM334.507 199.68c-13.654 0-27.307 3.413-35.84 10.24-30.72 20.48-40.96 75.093-27.307 148.48 15.36 80.213 54.613 172.373 114.347 261.12C435.2 692.907 491.52 756.053 547.84 802.133c54.613 42.667 104.107 66.56 143.36 66.56 13.653 0 27.307-3.413 35.84-10.24 30.72-20.48 40.96-75.093 27.307-148.48C738.987 629.76 699.733 537.6 640 448.853 590.507 375.467 534.187 312.32 477.867 266.24c-54.614-42.667-105.814-66.56-143.36-66.56z m0 0" fill="#1296db" p-id="3089"></path><path d="M354.987 916.48c-17.067 0-32.427-3.413-47.787-11.947-46.08-25.6-66.56-88.746-58.027-179.2 8.534-85.333 42.667-186.026 97.28-281.6C404.48 337.92 479.573 247.467 552.96 196.267c8.533-5.12 18.773-3.414 25.6 5.12 5.12 8.533 3.413 18.773-5.12 25.6C503.467 273.067 433.493 358.4 377.173 460.8c-51.2 92.16-83.626 187.733-92.16 269.653-8.533 73.387 6.827 126.294 39.254 145.067s85.333 1.707 143.36-44.373C530.773 781.653 593.92 701.44 645.12 609.28c56.32-100.693 90.453-206.507 93.867-290.133 0-10.24 8.533-17.067 18.773-17.067s17.067 8.533 17.067 18.773c-5.12 88.747-40.96 199.68-98.987 305.494-52.907 97.28-119.467 179.2-186.027 232.106-49.493 39.254-95.573 58.027-134.826 58.027z m0 0" fill="#1296db" p-id="3090"></path><path d="M607.573 196.267c0 49.493 40.96 90.453 90.454 90.453s90.453-40.96 90.453-90.453-40.96-90.454-90.453-90.454-90.454 39.254-90.454 90.454z m0 0" fill="#1296db" p-id="3091"></path></svg>